v 31.68411 -19.5 57.00142
v 25.71046 -19.54344 55.90171
v 28.15589 -19.5 53.45858
v 29.24876 -19.54344 59.43448
v 29.24876 -19.54344 59.43448
v 23.26499 -19.79174 58.35391
v 25.71046 -19.54344 55.90171
v 26.8063 -19.79174 61.88366
v 26.8063 -19.79174 61.88366
v 20.82262 -20.03693 60.80286
v 23.26499 -19.79174 58.35391
v 24.36078 -20.03693 64.33577
v 24.36078 -20.03693 64.33577
v 18.38502 -20.06981 63.23771
v 20.82262 -20.03693 60.80286
v 21.91226 -20.06981 66.78152
v 21.91226 -20.06981 66.78152
v 15.96268 -19.55557 65.6334
v 18.38502 -20.06981 63.23771
v 19.46311 -19.55557 69.2037
v 19.46311 -19.55557 69.2037
v 13.83522 -17.90738 67.68262
v 15.96268 -19.55557 65.6334
v 17.24018 -17.90738 71.34407
v 17.24018 -17.90738 71.34407
v 12.60594 -15.02783 68.75954
v 13.83522 -17.90738 67.68262
v 15.70088 -15.02783 72.68654
v 15.70088 -15.02783 72.68654
v 11.9176 -11.68652 69.26611
v 12.60594 -15.02783 68.75954
v 14.91217 -11.68652 73.27017
v 14.91217 -11.68652 73.27017
v 10.68021 -8.510429 70.36702
v 11.9176 -11.68652 69.26611
v 14.2195 -8.510429 73.89879
v 14.2195 -8.510429 73.89879
v 8.656185 -6.698227 72.74259
v 10.68021 -8.510429 70.36702
v 12.37363 -6.698227 75.81498
v 12.37363 -6.698227 75.81498
v 6.75119 -6.260528 75.63979
v 8.656185 -6.698227 72.74259
v 9.985971 -6.260528 78.25378
v 9.985971 -6.260528 78.25378
v 4.839241 -6.071661 78.35246
v 6.75119 -6.260528 75.63979
v 7.38306 -6.071661 80.77718
v 7.38306 -6.071661 80.77718
v 2.782911 -4.96944 80.14709
v 4.839241 -6.071661 78.35246
v 4.457526 -4.96944 83.13735
v 4.457526 -4.96944 83.13735
v 0.3095008 -3.068306 80.93397
v 2.782911 -4.96944 80.14709
v 1.58998 -3.068306 84.53573
v 1.58998 -3.068306 84.53573
v -2.893421 -1.148315 82.30922
v 0.3095008 -3.068306 80.93397
v -0.3360094 -1.148315 85.69958
v -0.3360094 -1.148315 85.69958
v -5.548721 0.05640196 85.4073
v -2.893421 -1.148315 82.30922
v -1.781291 0.05640196 87.55676
v -1.781291 0.05640196 87.55676
v -7.040013 0.398979 89.06543
v -5.548721 0.05640196 85.4073
v -2.871595 0.398979 90.24956
v -2.871595 0.398979 90.24956
v -7.833223 0.3530377 92.62385
v -7.040013 0.398979 89.06543
v -3.576018 0.3530377 93.40922
v -3.576018 0.3530377 93.40922
v -8.427825 0.3304764 96.05775
v -7.833223 0.3530377 92.62385
v -4.162293 0.3304764 96.784
v -4.162293 0.3304764 96.784
v -8.978373 0.4178143 99.57466
v -8.427825 0.3304764 96.05775
v -4.700686 0.4178143 100.1345
v -4.700686 0.4178143 100.1345
v -9.336507 0.4830869 103.0854
v -8.978373 0.4178143 99.57466
v -5.092584 0.4830869 103.4755
v -5.092584 0.4830869 103.4755
v -9.578491 0.5285918 106.5931
v -9.336507 0.4830869 103.0854
v -5.397462 0.5285918 106.8775
v -5.397462 0.5285918 106.8775
v -9.746989 0.5614149 110.0945
v -9.578491 0.5285918 106.5931
v -5.638727 0.5614149 110.3045
v -5.638727 0.5614149 110.3045
v -9.864594 0.585448 113.586
v -9.746989 0.5614149 110.0945
v -5.828101 0.585448 113.7393
v -5.828101 0.585448 113.7393
v -9.945691 0.6032461 117.0689
v -9.864594 0.585448 113.586
v -5.97086 0.6032461 117.176
v -5.97086 0.6032461 117.176
v -10.00139 0.6168842 120.5693
v -9.945691 0.6032461 117.0689
v -6.067125 0.6168842 120.6353
v -6.067125 0.6168842 120.6353
v -10.02563 0.627167 124.0595
v -10.00139 0.6168842 120.5693
v -6.098459 0.627167 124.0267
v -6.098459 0.627167 124.0267
v -9.932037 0.6289278 127.5815
v -10.02563 0.627167 124.0595
v -6.012112 0.6289278 127.4186
v -6.012112 0.6289278 127.4186
v -9.74401 0.6216639 131.082
v -9.932037 0.6289278 127.5815
v -5.835021 0.6216639 130.8414
v -5.835021 0.6216639 130.8414
v -9.514389 0.6062047 134.5369
v -9.74401 0.6216639 131.082
v -5.614868 0.6062047 134.2792
v -5.614868 0.6062047 134.2792
v -9.303205 0.5830395 137.9709
v -9.514389 0.6062047 134.5369
v -5.408255 0.5830395 137.7741
v -5.408255 0.5830395 137.7741
v -9.195853 0.5528781 141.3417
v -9.303205 0.5830395 137.9709
v -5.30133 0.5528781 141.3215
v -5.30133 0.5528781 141.3215
v -9.363704 0.5060222 144.6642
v -9.195853 0.5528781 141.3417
v -5.343004 0.5060222 144.9223
v -5.343004 0.5060222 144.9223
v -10.07688 0.4102692 147.9324
v -9.363704 0.5060222 144.6642
v -5.292465 0.4102692 148.5225
v -5.292465 0.4102692 148.5225
v -11.04849 0.3178001 151.3153
v -10.07688 0.4102692 147.9324
v -5.179555 0.3178001 151.9772
v -5.179555 0.3178001 151.9772
v -11.63134 0.3046684 154.9221
v -11.04849 0.3178001 151.3153
v -5.154812 0.3046684 155.2314
v -5.154812 0.3046684 155.2314
v -11.6124 0.3104211 158.5958
v -11.63134 0.3046684 154.9221
v -5.326367 0.3104211 158.5664
v -5.326367 0.3104211 158.5664
v -11.03056 0.2683939 162.1092
v -11.6124 0.3104211 158.5958
v -5.680419 0.2683939 161.8461
v -5.680419 0.2683939 161.8461
v -10.5271 0.412677 165.5089
v -11.03056 0.2683939 162.1092
v -5.866405 0.412677 165.3164
v -5.866405 0.412677 165.3164
v -10.22967 0.6623818 168.8813
v -10.5271 0.412677 165.5089
v -5.91545 0.6623818 168.742
v -5.91545 0.6623818 168.742
v -10.05145 0.9645486 172.3014
v -10.22967 0.6623818 168.8813
v -5.895051 0.9645486 172.1937
v -5.895051 0.9645486 172.1937
v -9.948009 1.316115 175.9393
v -10.05145 0.9645486 172.3014
v -5.827204 1.316115 175.8461
v -5.827204 1.316115 175.8461
v -9.925971 1.71705 179.343
v -9.948009 1.316115 175.9393
v -5.672199 1.71705 179.212
v -5.672199 1.71705 179.212
v -10.08001 2.349141 182.8861
v -9.925971 1.71705 179.343
v -5.230244 2.349141 182.587
v -5.230244 2.349141 182.587
v -11.34501 3.184 184.5108
v -10.08001 2.349141 182.8861
v -2.794986 3.184 183.8692
vn 0.008909778 0.9999207 0.008898341
vn 0.008909778 0.9999207 0.008898341
vn 0.008904073 0.999921 0.008867345
vn 0.008915505 0.9999204 0.008929465
vn 0.05053642 0.9974366 0.05065876
vn 0.05053642 0.9974366 0.05065876
vn 0.05052705 0.9974397 0.05060616
vn 0.05054579 0.9974334 0.05071142
vn 0.04991055 0.9974998 0.05002933
vn 0.04991055 0.9974998 0.05002933
vn 0.04992026 0.9974967 0.05008384
vn 0.04990084 0.9975031 0.04997488
vn 0.006738704 0.9999546 0.006727912
vn 0.006738704 0.9999546 0.006727912
vn 0.006743386 0.9999545 0.006753391
vn 0.006734045 0.9999548 0.006702549
vn -0.1056063 0.9889206 -0.1043231
vn -0.1056063 0.9889206 -0.1043231
vn -0.1057818 0.9887996 -0.1052871
vn -0.1054325 0.9890393 -0.1033693
vn -0.3464874 0.8777723 -0.3308508
vn -0.3464874 0.8777723 -0.3308508
vn -0.3479419 0.8732495 -0.3411331
vn -0.3450387 0.8820386 -0.3208678
vn -0.6401536 0.5380926 -0.5483244
vn -0.6401536 0.5380926 -0.5483244
vn -0.6369364 0.493429 -0.5923173
vn -0.6408787 0.5780661 -0.5050883
vn -0.7648438 0.2648568 -0.5872518
vn -0.7648438 0.2648568 -0.5872518
vn -0.7609288 0.247679 -0.5997019
vn -0.7683703 0.2817472 -0.5746526
vn -0.69958 0.3777135 -0.6065644
vn -0.69958 0.3777135 -0.6065644
vn -0.7106128 0.4610676 -0.5314566
vn -0.6776456 0.2821943 -0.6790897
vn -0.3576235 0.8471637 -0.3929618
vn -0.3576235 0.8471637 -0.3929618
vn -0.3555172 0.8641041 -0.3562748
vn -0.3593354 0.8257392 -0.434779
vn -0.08027867 0.9919284 -0.09814942
vn -0.08027867 0.9919284 -0.09814942
vn -0.08025426 0.9920334 -0.0971039
vn -0.08030727 0.9918036 -0.09937896
vn -0.03585348 0.9985108 -0.04111811
vn -0.03585348 0.9985108 -0.04111811
vn -0.03578784 0.9983776 -0.04428688
vn -0.0359241 0.9986436 -0.03768852
vn -0.2539489 0.9467692 -0.1978335
vn -0.2539489 0.9467692 -0.1978335
vn -0.2593023 0.9266918 -0.2720379
vn -0.2487423 0.9585 -0.1393013
vn -0.5022493 0.8348971 -0.22515
vn -0.5022493 0.8348971 -0.22515
vn -0.5224844 0.8008704 -0.292603
vn -0.4845755 0.8576179 -0.1722737
vn -0.4887349 0.8301653 -0.2682604
vn -0.4887349 0.8301653 -0.2682604
vn -0.4553118 0.8754937 -0.1618701
vn -0.5197566 0.7590395 -0.3920614
vn -0.2312155 0.9364049 -0.2639796
vn -0.2312155 0.9364049 -0.2639796
vn -0.2309957 0.9572251 -0.174244
vn -0.2276542 0.8882337 -0.3990171
vn -0.03851643 0.9950423 -0.09169117
vn -0.03851643 0.9950423 -0.09169117
vn -0.04318276 0.996196 -0.07568786
vn -0.03218594 0.9930391 -0.1133023
vn 0.003038378 0.9999109 0.01299835
vn 0.003038378 0.9999109 0.01299835
vn 0.003448845 0.9999203 0.01214077
vn 0.002576108 0.9998991 0.01396415
vn 0.001140317 0.9999787 0.00642931
vn 0.001140317 0.9999787 0.00642931
vn 0.001174521 0.999979 0.006366655
vn 0.001105501 0.9999784 0.006493085
vn -0.003738576 0.9996846 -0.02483462
vn -0.003738576 0.9996846 -0.02483462
vn -0.004117142 0.9996991 -0.02418174
vn -0.003340167 0.9996687 -0.02552169
vn -0.002097805 0.9998208 -0.01881973
vn -0.002097805 0.9998208 -0.01881973
vn -0.002400777 0.9998289 -0.01834396
vn -0.001776092 0.9998117 -0.01932493
vn -0.001047595 0.9999138 -0.01308724
vn -0.001047595 0.9999138 -0.01308724
vn -0.00118468 0.9999162 -0.01289002
vn -0.00090409 0.9999112 -0.01329368
vn -0.0005630455 0.9999552 -0.009441392
vn -0.0005630455 0.9999552 -0.009441392
vn -0.000635443 0.9999561 -0.009343515
vn -0.0004877916 0.9999544 -0.009543129
vn -0.000308974 0.9999759 -0.006925734
vn -0.000308974 0.9999759 -0.006925734
vn -0.000351224 0.9999763 -0.006871328
vn -0.0002652803 0.9999756 -0.006982
vn -0.0001671046 0.9999868 -0.005138812
vn -0.0001671046 0.9999868 -0.005138812
vn -0.0001939855 0.9999869 -0.005105569
vn -0.000139446 0.9999866 -0.005173016
vn -8.574718E-05 0.9999923 -0.003917271
vn -8.574718E-05 0.9999923 -0.003917271
vn -0.0001049798 0.9999924 -0.003894427
vn -6.608571E-05 0.9999923 -0.003940624
vn -1.258089E-05 0.9999955 -0.002988364
vn -1.258089E-05 0.9999955 -0.002988364
vn -4.940212E-05 0.9999956 -0.002945799
vn 2.538948E-05 0.9999954 -0.003032258
vn 1.270092E-05 0.9999999 -0.0005090138
vn 1.270092E-05 0.9999999 -0.0005090138
vn 4.185143E-06 0.9999998 -0.0004998303
vn 2.155211E-05 0.9999999 -0.000518559
vn -0.0001078608 0.9999979 0.002092673
vn -0.0001078608 0.9999979 0.002092673
vn -8.605134E-05 0.9999979 0.002070457
vn -0.0001302063 0.9999978 0.002115436
vn -0.0002850802 0.99999 0.004467099
vn -0.0002850802 0.99999 0.004467099
vn -0.0002742914 0.99999 0.004456357
vn -0.0002959475 0.9999899 0.004477919
vn -0.0003885416 0.9999776 0.006662892
vn -0.0003885416 0.9999776 0.006662892
vn -0.0004440161 0.9999773 0.006718313
vn -0.0003339114 0.999978 0.006608315
vn -0.0002425993 0.9999621 0.008711645
vn -0.0002425993 0.9999621 0.008711645
vn -0.0004513904 0.99996 0.008933299
vn -4.389711E-05 0.9999639 0.008500702
vn 0.000406558 0.9999085 0.01352236
vn 0.000406558 0.9999085 0.01352236
vn -7.283667E-05 0.9999006 0.01410487
vn 0.000834608 0.9999151 0.01300223
vn 0.002660041 0.9996151 0.02761454
vn 0.002660041 0.9996151 0.02761454
vn 0.001853877 0.9995812 0.02888126
vn 0.003284776 0.9996399 0.02663284
vn 0.003131083 0.9996402 0.02664422
vn 0.003131083 0.9996402 0.02664422
vn 0.003254766 0.9996464 0.02638952
vn 0.003028475 0.9996347 0.02685552
vn 0.0002991885 0.9999927 0.003803542
vn 0.0002991885 0.9999927 0.003803542
vn 0.0004032212 0.9999935 0.003575633
vn 0.0001927593 0.9999918 0.0040367
vn -3.597479E-05 0.9999986 -0.001640831
vn -3.597479E-05 0.9999986 -0.001640831
vn -7.479453E-05 0.9999988 -0.001566322
vn 8.083313E-06 0.9999985 -0.001725395
vn -0.0003107286 0.9999235 0.01236217
vn -0.0003107286 0.9999235 0.01236217
vn -5.599439E-05 0.9999285 0.01195208
vn -0.000633295 0.9999169 0.01288145
vn 0.001905667 0.9991209 -0.04187886
vn 0.001905667 0.9991209 -0.04187886
vn 0.002069548 0.9991114 -0.04209534
vn 0.00171961 0.9991315 -0.04163308
vn 0.002704418 0.997316 -0.07316849
vn 0.002704418 0.997316 -0.07316849
vn 0.003038971 0.9972851 -0.07357581
vn 0.002347133 0.9973487 -0.07273347
vn 0.002551531 0.9961585 -0.08753132
vn 0.002551531 0.9961585 -0.08753132
vn 0.002835221 0.9961289 -0.08785845
vn 0.002259295 0.9961888 -0.08719431
vn 0.002328443 0.9953835 -0.09594914
vn 0.002328443 0.9953835 -0.09594914
vn 0.002490649 0.9953664 -0.09612305
vn 0.00216543 0.9954007 -0.09577437
vn 0.003146647 0.9930624 -0.1175466
vn 0.003146647 0.9930624 -0.1175466
vn 0.002644568 0.9931324 -0.1169661
vn 0.003637805 0.9929934 -0.1181143
vn 0.008477275 0.9837375 -0.179412
vn 0.008477275 0.9837375 -0.179412
vn 0.005416123 0.9844013 -0.1758538
vn 0.01126584 0.9831135 -0.1826501
vn 0.03421845 0.8725133 -0.4873907
vn 0.03421845 0.8725133 -0.4873907
vn 0.02928503 0.8796116 -0.4747906
vn 0.03713088 0.8682216 -0.4947853
vt 0 0 0
vt 1 1 0
vt 1 0 0
vt 0 1 0
vt 0 0 0
vt 1 1 0
vt 1 0 0
vt 0 1 0
vt 0 0 0
vt 1 1 0
vt 1 0 0
vt 0 1 0
vt 0 0 0
vt 1 1 0
vt 1 0 0
vt 0 1 0
vt 0 0 0
vt 1 1 0
vt 1 0 0
vt 0 1 0
vt 0 0 0
vt 1 1 0
vt 1 0 0
vt 0 1 0
vt 0 0 0
vt 1 1 0
vt 1 0 0
vt 0 1 0
vt 0 0 0
vt 1 1 0
vt 1 0 0
vt 0 1 0
vt 0 0 0
vt 1 1 0
vt 1 0 0
vt 0 1 0
vt 0 0 0
vt 1 1 0
vt 1 0 0
vt 0 1 0
vt 0 0 0
vt 1 1 0
vt 1 0 0
vt 0 1 0
vt 0 0 0
vt 1 1 0
vt 1 0 0
vt 0 1 0
vt 0 0 0
vt 1 1 0
vt 1 0 0
vt 0 1 0
vt 0 0 0
vt 1 1 0
vt 1 0 0
vt 0 1 0
vt 0 0 0
vt 1 1 0
vt 1 0 0
vt 0 1 0
vt 0 0 0
vt 1 1 0
vt 1 0 0
vt 0 1 0
vt 0 0 0
vt 1 1 0
vt 1 0 0
vt 0 1 0
vt 0 0 0
vt 1 1 0
vt 1 0 0
vt 0 1 0
vt 0 0 0
vt 1 1 0
vt 1 0 0
vt 0 1 0
vt 0 0 0
vt 1 1 0
vt 1 0 0
vt 0 1 0
vt 0 0 0
vt 1 1 0
vt 1 0 0
vt 0 1 0
vt 0 0 0
vt 1 1 0
vt 1 0 0
vt 0 1 0
vt 0 0 0
vt 1 1 0
vt 1 0 0
vt 0 1 0
vt 0 0 0
vt 1 1 0
vt 1 0 0
vt 0 1 0
vt 0 0 0
vt 1 1 0
vt 1 0 0
vt 0 1 0
vt 0 0 0
vt 1 1 0
vt 1 0 0
vt 0 1 0
vt 0 0 0
vt 1 1 0
vt 1 0 0
vt 0 1 0
vt 0 0 0
vt 1 1 0
vt 1 0 0
vt 0 1 0
vt 0 0 0
vt 1 1 0
vt 1 0 0
vt 0 1 0
vt 0 0 0
vt 1 1 0
vt 1 0 0
vt 0 1 0
vt 0 0 0
vt 1 1 0
vt 1 0 0
vt 0 1 0
vt 0 0 0
vt 1 1 0
vt 1 0 0
vt 0 1 0
vt 0 0 0
vt 1 1 0
vt 1 0 0
vt 0 1 0
vt 0 0 0
vt 1 1 0
vt 1 0 0
vt 0 1 0
vt 0 0 0
vt 1 1 0
vt 1 0 0
vt 0 1 0
vt 0 0 0
vt 1 1 0
vt 1 0 0
vt 0 1 0
vt 0 0 0
vt 1 1 0
vt 1 0 0
vt 0 1 0
vt 0 0 0
vt 1 1 0
vt 1 0 0
vt 0 1 0
vt 0 0 0
vt 1 1 0
vt 1 0 0
vt 0 1 0
vt 0 0 0
vt 1 1 0
vt 1 0 0
vt 0 1 0
vt 0 0 0
vt 1 1 0
vt 1 0 0
vt 0 1 0
vt 0 0 0
vt 1 1 0
vt 1 0 0
vt 0 1 0
vt 0 0 0
vt 1 1 0
vt 1 0 0
vt 0 1 0
vt 0 0 0
vt 1 1 0
vt 1 0 0
vt 0 1 0
vt 0 0 0
vt 1 1 0
vt 1 0 0
vt 0 1 0

g Creek_render
usemtl unnamed
usemap unnamed
f 3/3/3 2/2/2 1/1/1

f 4/4/4 1/1/1 2/2/2

f 7/7/7 6/6/6 5/5/5

f 8/8/8 5/5/5 6/6/6

f 11/11/11 10/10/10 9/9/9

f 12/12/12 9/9/9 10/10/10

f 15/15/15 14/14/14 13/13/13

f 16/16/16 13/13/13 14/14/14

f 19/19/19 18/18/18 17/17/17

f 20/20/20 17/17/17 18/18/18

f 23/23/23 22/22/22 21/21/21

f 24/24/24 21/21/21 22/22/22

f 27/27/27 26/26/26 25/25/25

f 28/28/28 25/25/25 26/26/26

f 31/31/31 30/30/30 29/29/29

f 32/32/32 29/29/29 30/30/30

f 35/35/35 34/34/34 33/33/33

f 36/36/36 33/33/33 34/34/34

f 39/39/39 38/38/38 37/37/37

f 40/40/40 37/37/37 38/38/38

f 43/43/43 42/42/42 41/41/41

f 44/44/44 41/41/41 42/42/42

f 47/47/47 46/46/46 45/45/45

f 48/48/48 45/45/45 46/46/46

f 51/51/51 50/50/50 49/49/49

f 52/52/52 49/49/49 50/50/50

f 55/55/55 54/54/54 53/53/53

f 56/56/56 53/53/53 54/54/54

f 59/59/59 58/58/58 57/57/57

f 60/60/60 57/57/57 58/58/58

f 63/63/63 62/62/62 61/61/61

f 64/64/64 61/61/61 62/62/62

f 67/67/67 66/66/66 65/65/65

f 68/68/68 65/65/65 66/66/66

f 71/71/71 70/70/70 69/69/69

f 72/72/72 69/69/69 70/70/70

f 75/75/75 74/74/74 73/73/73

f 76/76/76 73/73/73 74/74/74

f 79/79/79 78/78/78 77/77/77

f 80/80/80 77/77/77 78/78/78

f 83/83/83 82/82/82 81/81/81

f 84/84/84 81/81/81 82/82/82

f 87/87/87 86/86/86 85/85/85

f 88/88/88 85/85/85 86/86/86

f 91/91/91 90/90/90 89/89/89

f 92/92/92 89/89/89 90/90/90

f 95/95/95 94/94/94 93/93/93

f 96/96/96 93/93/93 94/94/94

f 99/99/99 98/98/98 97/97/97

f 100/100/100 97/97/97 98/98/98

f 103/103/103 102/102/102 101/101/101

f 104/104/104 101/101/101 102/102/102

f 107/107/107 106/106/106 105/105/105

f 108/108/108 105/105/105 106/106/106

f 111/111/111 110/110/110 109/109/109

f 112/112/112 109/109/109 110/110/110

f 115/115/115 114/114/114 113/113/113

f 116/116/116 113/113/113 114/114/114

f 119/119/119 118/118/118 117/117/117

f 120/120/120 117/117/117 118/118/118

f 123/123/123 122/122/122 121/121/121

f 124/124/124 121/121/121 122/122/122

f 127/127/127 126/126/126 125/125/125

f 128/128/128 125/125/125 126/126/126

f 131/131/131 130/130/130 129/129/129

f 132/132/132 129/129/129 130/130/130

f 135/135/135 134/134/134 133/133/133

f 136/136/136 133/133/133 134/134/134

f 139/139/139 138/138/138 137/137/137

f 140/140/140 137/137/137 138/138/138

f 143/143/143 142/142/142 141/141/141

f 144/144/144 141/141/141 142/142/142

f 147/147/147 146/146/146 145/145/145

f 148/148/148 145/145/145 146/146/146

f 151/151/151 150/150/150 149/149/149

f 152/152/152 149/149/149 150/150/150

f 155/155/155 154/154/154 153/153/153

f 156/156/156 153/153/153 154/154/154

f 159/159/159 158/158/158 157/157/157

f 160/160/160 157/157/157 158/158/158

f 163/163/163 162/162/162 161/161/161

f 164/164/164 161/161/161 162/162/162

f 167/167/167 166/166/166 165/165/165

f 168/168/168 165/165/165 166/166/166

f 171/171/171 170/170/170 169/169/169

f 172/172/172 169/169/169 170/170/170

f 175/175/175 174/174/174 173/173/173

f 176/176/176 173/173/173 174/174/174

f 179/179/179 178/178/178 177/177/177

f 180/180/180 177/177/177 178/178/178


